Coordinates
version=1
nRows=13
nColumns=40
inDegrees=yes

Units are S.I. units (second, meters, Newtons, ...)
If the header above contains a line with 'inDegrees', this indicates whether rotational values are in degrees (yes) or radians (no).

endheader
time	pelvis_tilt	pelvis_list	pelvis_rotation	pelvis_tx	pelvis_ty	pelvis_tz	hip_flexion_r	hip_adduction_r	hip_rotation_r	knee_angle_r	knee_angle_r_beta	ankle_angle_r	subtalar_angle_r	mtp_angle_r	hip_flexion_l	hip_adduction_l	hip_rotation_l	knee_angle_l	knee_angle_l_beta	ankle_angle_l	subtalar_angle_l	mtp_angle_l	lumbar_extension	lumbar_bending	lumbar_rotation	arm_flex_r	arm_add_r	arm_rot_r	elbow_flex_r	pro_sup_r	wrist_flex_r	wrist_dev_r	arm_flex_l	arm_add_l	arm_rot_l	elbow_flex_l	pro_sup_l	wrist_flex_l	wrist_dev_l
      2.60000000	     -8.26686433	      2.66709962	      5.40282911	     -0.28770317	      0.99184345	     -0.74186783	     14.09477936	      0.87675829	     -7.64460453	     16.58878704	      0.28952895	     -5.74431697	      0.00000000	      0.00000000	     18.27523585	     -3.22982604	      2.81295488	     76.56709586	      1.33634792	     -6.71456148	      0.00000000	      0.00000000	     -3.22325421	     -0.37160093	     -6.69253283	     80.87419272	     -4.96320813	     23.85286795	     28.90872912	     77.32728779	      0.00000000	      0.00000000	     80.63095509	    -12.55336862	     31.40260403	     34.04764745	     80.09162445	      0.00000000	      0.00000000
      2.60500000	     -8.40705053	      2.72985597	      5.42139000	     -0.28819240	      0.99160918	     -0.74184086	     14.36118372	      0.76566305	     -7.77542578	     16.79105967	      0.29305928	     -5.63231507	      0.00000000	      0.00000000	     18.33440163	     -3.12740965	      2.86804259	     76.53695225	      1.33582182	     -6.84212338	      0.00000000	      0.00000000	     -3.20769270	     -0.44764052	     -6.73248776	     80.90265947	     -4.85411294	     23.49200643	     28.87367866	     77.00709415	      0.00000000	      0.00000000	     80.60386517	    -12.46951141	     30.85259748	     34.05382719	     79.90984742	      0.00000000	      0.00000000
      2.61000000	     -8.45939083	      2.44382504	      5.30089422	     -0.28870518	      0.99133133	     -0.74137986	     14.39390679	      1.16952123	     -7.32930849	     16.56337143	      0.28908537	     -5.75087933	      0.00000000	      0.00000000	     18.31877570	     -3.55946685	      2.75923421	     76.61935593	      1.33726003	     -6.52855786	      0.00000000	      0.00000000	     -3.24669339	     -0.14126357	     -6.60806828	     81.11809171	     -5.14211414	     24.85440692	     28.92186246	     74.80326792	      0.00000000	      0.00000000	     80.81920094	    -12.58360741	     31.73434172	     33.99361975	     77.75321343	      0.00000000	      0.00000000
      2.61500000	     -8.66554891	      2.69572191	      5.23625995	     -0.28945758	      0.99098995	     -0.74134863	     14.88135292	      0.82832319	     -7.48146766	     17.07476195	      0.29801082	     -5.61719300	      0.00000000	      0.00000000	     18.44676295	     -3.24330038	      2.70827066	     76.59074232	      1.33676063	     -6.77238501	      0.00000000	      0.00000000	     -3.20336624	     -0.44604416	     -6.53275369	     81.22959904	     -5.05616125	     24.78272403	     28.83531967	     75.17470957	      0.00000000	      0.00000000	     81.06629473	    -12.74852161	     32.44845039	     34.00459417	     78.38365038	      0.00000000	      0.00000000
      2.62000000	     -8.80387332	      2.74404949	      5.20455210	     -0.29005977	      0.99069598	     -0.74120510	     15.15662119	      0.76152236	     -7.45573098	     17.27079127	      0.30143217	     -5.51077422	      0.00000000	      0.00000000	     18.51660060	     -3.20346220	      2.67123950	     76.63118244	      1.33746644	     -6.73838925	      0.00000000	      0.00000000	     -3.20232945	     -0.51673805	     -6.50485024	     81.29854461	     -4.99487954	     24.27371962	     28.74758542	     76.61366160	      0.00000000	      0.00000000	     81.10944929	    -12.64358133	     31.85411470	     33.90896352	     79.73541924	      0.00000000	      0.00000000
      2.62500000	     -8.83187807	      2.64897471	      5.26510134	     -0.29036719	      0.99053465	     -0.74108828	     15.23076540	      0.84307242	     -7.58743075	     17.29525117	      0.30185908	     -5.56904536	      0.00000000	      0.00000000	     18.46108601	     -3.29959541	      2.76642994	     76.62323018	      1.33732765	     -6.83556595	      0.00000000	      0.00000000	     -3.27852494	     -0.41711379	     -6.56818694	     81.37956395	     -4.91547636	     24.02967096	     28.64834897	     76.83193544	      0.00000000	      0.00000000	     81.17517373	    -12.64531312	     31.76850195	     33.86907320	     80.14372565	      0.00000000	      0.00000000
      2.63000000	     -9.06711086	      2.82021128	      5.20653887	     -0.29120490	      0.99019867	     -0.74100572	     15.67112464	      0.62013748	     -7.62277182	     17.60645444	      0.30729060	     -5.44185598	      0.00000000	      0.00000000	     18.57967068	     -2.95794045	      2.80320486	     76.57488780	      1.33648392	     -6.78556377	      0.00000000	      0.00000000	     -3.21354845	     -0.61659308	     -6.56460494	     81.43306639	     -4.78225349	     23.62721306	     28.70528567	     76.43812905	      0.00000000	      0.00000000	     81.15675648	    -12.58979855	     31.07374462	     33.94359397	     79.90847521	      0.00000000	      0.00000000
      2.63500000	     -9.08723119	      2.72183967	      5.09094557	     -0.29176707	      0.98992602	     -0.74062990	     15.78026404	      0.77154802	     -7.43400833	     17.64805181	      0.30801661	     -5.49518919	      0.00000000	      0.00000000	     18.51785239	     -3.21635770	      2.60944999	     76.51892959	      1.33550726	     -5.96946852	      0.00000000	      0.00000000	     -3.30966685	     -0.51829269	     -6.45568774	     81.61378593	     -4.79432487	     23.82894986	     28.52408918	     76.45951860	      0.00000000	      0.00000000	     81.34619720	    -12.62134934	     31.32490150	     33.80927603	     80.04948225	      0.00000000	      0.00000000
      2.64000000	     -9.19835903	      2.73282976	      5.10754127	     -0.29233500	      0.98963205	     -0.74058827	     16.01316355	      0.73238400	     -7.44505394	     17.83089610	      0.31120785	     -5.41877739	      0.00000000	      0.00000000	     18.55852342	     -3.09774094	      2.76136522	     76.67012550	      1.33814613	     -6.55894893	      0.00000000	      0.00000000	     -3.34045930	     -0.53556945	     -6.43664725	     81.75714349	     -4.86098227	     24.14633718	     28.50369244	     76.58500976	      0.00000000	      0.00000000	     81.51848293	    -12.65315275	     31.56534961	     33.77884552	     80.23733594	      0.00000000	      0.00000000
      2.64500000	     -9.29924396	      2.71753721	      5.09596812	     -0.29290855	      0.98933245	     -0.74043219	     16.23595022	      0.73448523	     -7.43417662	     17.97905316	      0.31379367	     -5.39810368	      0.00000000	      0.00000000	     18.59830176	     -3.12587827	      2.74645482	     76.71779972	      1.33897820	     -6.58499296	      0.00000000	      0.00000000	     -3.37458702	     -0.53477280	     -6.42451474	     81.89192821	     -4.94957944	     24.67235848	     28.53828093	     75.72796689	      0.00000000	      0.00000000	     81.72770100	    -12.74234271	     32.20266097	     33.74027501	     79.45067295	      0.00000000	      0.00000000
      2.65000000	     -9.45619475	      2.79397728	      5.11291961	     -0.29341583	      0.98899184	     -0.74039108	     16.56491345	      0.59486407	     -7.59907050	     18.27453759	      0.31895085	     -5.26519032	      0.00000000	      0.00000000	     18.66945126	     -3.01254760	      2.77104015	     76.70389878	      1.33873558	     -6.70295116	      0.00000000	      0.00000000	     -3.32776556	     -0.63549691	     -6.45047652	     81.92763790	     -4.79800147	     24.20003546	     28.43744481	     75.25394734	      0.00000000	      0.00000000	     81.69514811	    -12.60623404	     31.56442016	     33.68037935	     79.16356622	      0.00000000	      0.00000000
      2.65500000	     -9.52578834	      2.69874125	      5.07674287	     -0.29393233	      0.98869751	     -0.74018655	     16.69925004	      0.70756014	     -7.51759286	     18.29526854	      0.31931267	     -5.30706903	      0.00000000	      0.00000000	     18.66373343	     -3.15000853	      2.75601407	     76.75734518	      1.33966840	     -6.61200165	      0.00000000	      0.00000000	     -3.37392825	     -0.55014521	     -6.38521068	     82.02282478	     -4.90118501	     24.38889821	     28.50972552	     75.81754886	      0.00000000	      0.00000000	     81.87573085	    -12.63270928	     31.88635263	     33.61919949	     79.72766912	      0.00000000	      0.00000000
      2.66000000	     -9.64834433	      2.65757793	      5.07160961	     -0.29455078	      0.98835402	     -0.74002100	     16.94221220	      0.73977118	     -7.49962777	     18.43099408	      0.32168153	     -5.30241303	      0.00000000	      0.00000000	     18.72708923	     -3.22045918	      2.74091343	     76.77395638	      1.33995832	     -6.45760472	      0.00000000	      0.00000000	     -3.37794086	     -0.51838169	     -6.39877990	     82.13765858	     -4.95756302	     24.84765103	     28.54350429	     75.09243026	      0.00000000	      0.00000000	     82.05789254	    -12.75590391	     32.40863143	     33.62206679	     79.07071782	      0.00000000	      0.00000000
